<?xml version="1.0" standalone="no"?>
<!DOCTYPE svg PUBLIC "-//W3C//DTD SVG 20010904//EN"
 "http://www.w3.org/TR/2001/REC-SVG-20010904/DTD/svg10.dtd">
<svg version="1.0" xmlns="http://www.w3.org/2000/svg"
 width="512.000000pt" height="512.000000pt" viewBox="0 0 512.000000 512.000000"
 preserveAspectRatio="xMidYMid meet">
<metadata>
Created by potrace 1.14, written by Peter Selinger 2001-2017
</metadata>
<g transform="translate(0.000000,512.000000) scale(0.100000,-0.100000)"
fill="#000000" stroke="none">
<path d="M4220 4953 c-320 -38 -552 -290 -553 -603 0 -104 15 -173 59 -266 59
-125 156 -222 280 -282 90 -44 149 -57 266 -57 l107 0 -18 -30 c-27 -46 -15
-79 32 -90 31 -8 52 11 257 234 147 160 174 204 210 332 72 260 -72 577 -318
699 -95 47 -230 73 -322 63z"/>
<path d="M1290 4664 c-132 -21 -235 -71 -320 -156 -44 -43 -51 -78 -24 -117
16 -22 15 -24 -18 -54 -81 -74 -131 -164 -168 -301 -31 -118 -54 -156 -139
-228 -30 -26 -26 -61 10 -96 31 -30 103 -62 141 -62 16 0 18 -9 18 -75 0 -66
2 -76 22 -89 30 -19 96 -36 164 -43 58 -5 104 13 104 42 0 8 5 15 10 15 6 0
11 0 13 0 1 1 20 5 41 10 31 7 46 5 75 -11 20 -10 48 -19 63 -19 26 0 28 -3
28 -42 l0 -43 -79 -2 c-168 -4 -245 -46 -672 -364 -135 -101 -265 -197 -288
-214 -60 -41 -118 -112 -136 -165 -15 -47 -20 -96 -30 -325 -3 -77 -8 -169
-10 -205 -9 -155 -18 -367 -16 -393 6 -111 155 -195 268 -152 63 24 92 68 105
157 10 64 16 78 49 113 48 50 69 101 69 163 0 61 -19 108 -59 146 -17 16 -29
32 -27 35 2 3 7 35 11 71 8 72 19 107 43 133 25 28 319 168 414 197 49 15 57
16 62 3 13 -32 5 -77 -15 -100 -19 -19 -22 -33 -20 -95 2 -40 3 -237 4 -438 2
-357 3 -366 25 -415 13 -27 31 -61 40 -75 14 -20 17 -50 17 -150 1 -145 20
-226 85 -366 22 -47 40 -87 40 -89 0 -2 15 -36 34 -77 80 -174 84 -187 90
-265 4 -43 8 -94 11 -113 2 -19 6 -62 10 -95 3 -33 8 -68 11 -77 4 -15 37 -16
367 -15 l362 2 12 37 c24 73 29 201 24 589 -1 75 3 157 9 183 25 114 94 196
240 286 112 69 197 136 295 231 44 43 94 90 110 105 17 15 57 52 91 83 127
118 213 193 424 374 25 20 85 63 135 94 204 128 393 272 560 427 91 84 103 92
128 85 40 -11 129 -2 179 18 62 24 109 55 170 112 67 64 142 104 243 131 44
12 102 34 128 48 66 35 138 117 182 205 31 62 36 80 34 132 -3 78 -24 128 -73
179 -49 49 -132 81 -193 72 -21 -3 -56 -8 -78 -12 -125 -17 -234 -67 -400
-183 -43 -29 -124 -75 -180 -102 -111 -52 -160 -93 -190 -160 -17 -36 -29 -46
-134 -98 -64 -32 -156 -82 -204 -110 -49 -28 -93 -51 -98 -51 -5 0 -9 -4 -9
-9 0 -5 -9 -12 -19 -16 -11 -3 -91 -54 -178 -112 -195 -130 -267 -170 -538
-298 -288 -136 -456 -201 -615 -239 -85 -20 -170 -40 -188 -45 -24 -7 -34 -6
-37 2 -3 7 -6 66 -7 132 l-3 120 40 -3 c28 -2 45 -10 58 -28 22 -29 54 -31
155 -9 144 30 339 108 442 178 178 120 292 279 340 475 28 116 30 135 35 291
4 128 2 149 -15 189 -49 111 -178 149 -277 81 -54 -38 -78 -87 -88 -179 -4
-36 -12 -72 -19 -80 -37 -46 -51 -125 -34 -187 22 -79 19 -91 -25 -134 -70
-68 -171 -110 -272 -114 -108 -4 -305 74 -411 162 l-45 38 3 79 3 79 45 4 c77
5 125 30 184 93 77 84 95 136 91 270 -4 152 -63 365 -137 490 -13 23 -21 58
-24 101 -7 124 -62 250 -139 318 -116 102 -318 147 -515 115z"/>
<path d="M3398 4073 c-9 -2 -22 -17 -28 -33 -10 -25 -10 -34 4 -54 28 -43 123
-38 144 8 10 22 1 59 -18 71 -13 8 -77 13 -102 8z"/>
<path d="M3642 3740 c-71 -44 -109 -144 -81 -217 33 -87 178 -161 262 -134 90
30 128 124 84 207 -25 48 -140 150 -177 158 -47 9 -51 8 -88 -14z"/>
<path d="M4576 2684 c-9 -8 -16 -23 -17 -32 0 -9 -2 -25 -4 -34 -4 -23 32 -68
55 -68 56 0 86 95 41 131 -28 23 -54 24 -75 3z"/>
</g>
</svg>
